<?xml version="1.0" encoding="UTF-8"?><svg id="Layer_1" xmlns="http://www.w3.org/2000/svg" viewBox="0 0 146.99 62.39"><defs><style>.cls-1{fill:#e37d71;}</style></defs><path class="cls-1" d="M4.27,19.07c1.46,2.37,5.6,5.61,8.82,8.24,1.38,1.14,2.8,2.28,3.75,3.84,1.04,1.72,1.29,3.7-.1,6.14-.09,.16-.19,.33-.3,.5-.26,.4-.56,.76-.89,1.09-.6,.58-1.3,1.04-2.07,1.4-1.24,.58-2.66,.88-4.07,.98-1.19,.08-2.36,0-3.43-.17-4.47-.77-7.82-3.78-4.85-8.69h0c4.23,10.24,19.2,8.78,11.8,1.02-2.7-2.83-5.88-5.14-8.81-7.7-1.23-1.07-2.26-2.18-2.76-3.47-.48-1.26-.38-2.79,.1-3.99,1.44-3.61,5.1-4.8,8.67-4.66,2.64,.11,5.77,1.96,6.49,4.6,.48,1.76-.5,3.52-2.21,4.12-.53-3.25-2.71-6.38-5.95-7.17-2.57-.63-6.16,.73-4.19,3.92Z"/><path class="cls-1" d="M36.14,31.37c0,5.52-3.91,10-8.28,10s-8.28-4.48-8.28-10,3.91-10,8.28-10,8.28,4.48,8.28,10Zm-10.6-8.43c-2,.52-2.88,4.72-1.6,9.38,1.28,4.66,4.24,8.01,6.24,7.49,2-.52,2.88-4.72,1.6-9.38-1.28-4.66-4.24-8.01-6.24-7.49Z"/><path class="cls-1" d="M50.84,25.41c-.08-2.03-1.27-3.07-2.92-2.34-1.56,.68-3.04,2.73-3.69,4.91v11.1c0,.8,.65,1.46,1.45,1.46h.87v.39h-8.58v-.39h.87c.8,0,1.46-.65,1.46-1.46v-14.45c0-.84-1.06-.87-1.66-.76v-.43c1.12-.12,4.6-1.02,5.18-2.07l.41-.02v4.24c1.08-1.82,2.76-3.32,4.65-3.94,.69-.23,1.34-.32,1.96-.29,2.29,.1,3.93,1.86,3.93,4.57v13.15c0,.8,.65,1.46,1.45,1.46h.87v.39h-8.58v-.39h.87c.8,0,1.45-.65,1.45-1.46v-13.67Z"/><path class="cls-1" d="M72.56,26.86c.04,2.11-1.37,3.69-3.23,4.83-2.07,1.27-4.61,1.22-4.61,4.32,0,.84,.31,1.6,.81,2.19,.06,.06,.11,.13,.17,.19,.32,.33,.64,.61,.95,.84,.41,.29,.82,.51,1.22,.62,.32,.09,.63,.11,.91,.04,.13-.03,.35-.13,.61-.25,.37-.13,.73-.31,1.05-.53,.39-.21,.74-.4,.94-.51l.26,.45,.15,.25-1.73,1-.37,.21c-1.02,.55-2.13,.86-3.28,.86-4.37,0-8.28-4.48-8.28-10s3.91-10,8.28-10c3.13,0,6.07,2.18,6.14,5.5Zm-4.13-1.72c-1.46-3.96-6.92-3.46-6.51,3.74,.09,1.61,.42,2.86,.86,4.38l.27,.74c.25,.65,.53,1.26,.84,1.82v-.15c0-.72,.18-1.39,.5-1.98,1.32-2.44,5.91-3.48,4.04-8.55Z"/><path class="cls-1" d="M82.7,21.37c1.2,0,2.36,.34,3.42,.94,.18,.1,.35,.21,.52,.32,1.06,.77,1.74,2.01,1.74,3.42,0,1.52-.8,2.84-2,3.59-1.17-3.59-3.31-6.25-5.08-6.69-.32-.08-.64-.09-.93-.01-2,.52-2.88,4.72-1.6,9.38,.88,3.2,2.55,5.78,4.16,6.92,.73,.52,1.51,.82,2.13,.66,.45-.12,2.09-1,2.6-1.29l.26,.45,.15,.25-1.73,1-.37,.21c-1.02,.55-2.13,.86-3.28,.86-4.38,0-8.28-4.48-8.28-10s3.91-10,8.28-10Z"/><path class="cls-1" d="M103.09,25.41c-.08-2.03-1.27-3.07-2.92-2.34-1.56,.68-3.04,2.73-3.69,4.91v11.1c0,.8,.65,1.46,1.45,1.46h.87v.39h-8.58v-.39h.87c.8,0,1.45-.65,1.45-1.46V16.85c0-.84-1.06-.87-1.66-.76v-.43c1.12-.12,4.6-1.02,5.18-2.07l.41-.02v12.03c1.08-1.82,2.76-3.32,4.65-3.94,.69-.23,1.34-.32,1.96-.29,2.29,.1,3.93,1.86,3.93,4.57v13.15c0,.8,.65,1.46,1.45,1.46h.87v.39h-8.58v-.39h.87c.8,0,1.45-.65,1.45-1.46v-13.67Z"/><path class="cls-1" d="M111.87,16.09v-.43c1.12-.12,4.6-1.02,5.18-2.07l.41-.02v18.99c4.2-2.11,9.24-6.43,3.81-10.14,2.08-2.23,6.8-1.24,6.9,1.75,.05,1.61-1.3,3.86-5.25,6.61l4.41,7.69c.69,1.3,1.95,2.05,3.42,2.05v.39h-9.39v-.39h.53c.45,0,.84-.22,1.07-.61,.23-.39,.24-.83,.03-1.23l-3.54-6.06c-.47,.23-1.57,.88-2,1.06v5.38c0,.8,.65,1.46,1.45,1.46h.87v.39h-8.58v-.39h.87c.8,0,1.45-.65,1.45-1.46V16.85c0-.84-1.06-.87-1.66-.76Z"/><path class="cls-1" d="M146.99,31.37c0,5.52-3.91,10-8.28,10s-8.28-4.48-8.28-10,3.91-10,8.28-10,8.28,4.48,8.28,10Zm-10.6-8.43c-2,.52-2.88,4.72-1.6,9.38,1.28,4.66,4.24,8.01,6.24,7.49,2-.52,2.88-4.72,1.6-9.38-1.28-4.66-4.24-8.01-6.24-7.49Z"/><g><g><path d="M27.34,17.78c-.96-2.51-1.25-5.12-.85-7.79,.97,2.51,1.25,5.12,.85,7.79h0Z"/><path d="M26.25,7.79c-.96-2.51-1.25-5.12-.85-7.79,.97,2.51,1.25,5.12,.85,7.79h0Z"/></g><g><path d="M31.44,17.73c.5-2.64,1.63-5.02,3.38-7.07-.5,2.65-1.64,5.01-3.38,7.07h0Z"/><path d="M35.78,8.65c.5-2.64,1.63-5.02,3.38-7.07-.5,2.65-1.64,5.01-3.38,7.07h0Z"/></g><g><path d="M23.2,18.59c-2.14-1.63-3.76-3.7-4.82-6.17,2.14,1.63,3.76,3.7,4.82,6.17h0Z"/><path d="M17.01,10.67c-2.14-1.63-3.76-3.7-4.82-6.17,2.14,1.63,3.76,3.7,4.82,6.17h0Z"/></g><g><path d="M34.81,19.69c1.63-2.14,3.7-3.76,6.17-4.82-1.63,2.14-3.7,3.76-6.17,4.82h0Z"/><path d="M42.73,13.51c1.63-2.14,3.7-3.76,6.17-4.82-1.63,2.14-3.7,3.76-6.17,4.82h0Z"/></g><g><g><path d="M25.62,44.88c-.06,2.69-.78,5.22-2.16,7.53,.05-2.69,.78-5.22,2.16-7.53h0Z"/><path d="M22.85,54.54c-.06,2.69-.78,5.22-2.16,7.53,.05-2.69,.78-5.21,2.16-7.53h0Z"/></g><g><path d="M30.51,45.02c1.28,2.36,1.92,4.91,1.87,7.61-1.29-2.36-1.91-4.92-1.87-7.61h0Z"/><path d="M32.9,54.79c1.28,2.36,1.92,4.91,1.87,7.61-1.29-2.36-1.91-4.92-1.87-7.61h0Z"/></g><g><path d="M21.48,42.96c-1.64,2.14-3.71,3.75-6.19,4.8,1.63-2.14,3.71-3.74,6.19-4.8h0Z"/><path d="M13.53,49.11c-1.64,2.14-3.71,3.75-6.19,4.8,1.63-2.14,3.71-3.74,6.19-4.8h0Z"/></g><g><path d="M34.59,43.45c2.2,1.54,3.91,3.54,5.06,5.97-2.21-1.54-3.9-3.55-5.06-5.97h0Z"/><path d="M41.09,51.12c2.2,1.54,3.91,3.54,5.06,5.97-2.21-1.54-3.9-3.55-5.06-5.97h0Z"/></g></g></g></svg>