<?xml version="1.0" encoding="UTF-8"?><svg id="Layer_1" xmlns="http://www.w3.org/2000/svg" viewBox="0 0 227.54 96.58"><path d="M6.61,29.51c2.27,3.68,8.67,8.68,13.65,12.75,2.13,1.76,4.34,3.54,5.8,5.95,1.61,2.66,1.99,5.73-.16,9.51-.14,.25-.3,.51-.47,.77-.4,.62-.86,1.18-1.38,1.69-.92,.9-2.02,1.62-3.21,2.17-1.93,.89-4.12,1.37-6.29,1.51-1.83,.12-3.66,.01-5.31-.27-6.92-1.19-12.1-5.85-7.5-13.46v-.02c6.55,15.86,29.73,13.6,18.28,1.59-4.18-4.39-9.1-7.96-13.64-11.92-1.9-1.66-3.5-3.38-4.27-5.37-.75-1.95-.58-4.32,.16-6.17,2.24-5.59,7.9-7.44,13.42-7.21,4.09,.17,8.93,3.03,10.04,7.12,.74,2.72-.77,5.45-3.43,6.38-.83-5.04-4.2-9.87-9.2-11.1-3.98-.98-9.54,1.13-6.49,6.08Z"/><path d="M55.94,48.55c0,8.55-6.05,15.48-12.82,15.48s-12.82-6.93-12.82-15.48,6.05-15.48,12.82-15.48,12.82,6.93,12.82,15.48Zm-16.41-13.06c-3.09,.81-4.46,7.31-2.48,14.52,1.98,7.21,6.57,12.4,9.66,11.59,3.1-.81,4.46-7.31,2.48-14.52-1.98-7.21-6.57-12.4-9.66-11.59Z"/><path d="M78.7,39.34c-.12-3.15-1.96-4.75-4.52-3.63-2.42,1.06-4.71,4.22-5.71,7.61v17.19c0,1.24,1.01,2.25,2.25,2.25h1.35v.6h-13.28v-.6h1.35c1.24,0,2.25-1.01,2.25-2.25v-22.36c0-1.3-1.64-1.35-2.58-1.17v-.66c1.73-.18,7.12-1.58,8.01-3.2l.64-.03v6.56c1.67-2.82,4.27-5.14,7.2-6.1,1.06-.35,2.08-.5,3.03-.46,3.54,.15,6.08,2.88,6.08,7.07v20.35c0,1.24,1.01,2.25,2.25,2.25h1.35v.6h-13.28v-.6h1.35c1.24,0,2.25-1.01,2.25-2.25v-21.17Z"/><path d="M112.32,41.58c.07,3.26-2.12,5.71-5,7.48-3.2,1.97-7.14,1.89-7.14,6.68,0,1.3,.47,2.48,1.26,3.4,.09,.1,.18,.2,.27,.29,.49,.51,.98,.95,1.48,1.29,.63,.44,1.27,.79,1.89,.96,.5,.14,.98,.17,1.41,.06,.2-.05,.54-.2,.95-.39,.58-.2,1.12-.47,1.62-.82,.6-.32,1.15-.62,1.45-.79l.4,.69,.23,.39-2.67,1.54-.57,.33c-1.58,.86-3.3,1.33-5.08,1.33-6.77,0-12.82-6.93-12.82-15.48s6.05-15.48,12.82-15.48c4.85,0,9.4,3.38,9.51,8.51Zm-6.4-2.66c-2.25-6.13-10.71-5.36-10.07,5.79,.14,2.5,.66,4.42,1.33,6.77l.42,1.15c.39,1,.82,1.95,1.29,2.82v-.23c0-1.11,.28-2.15,.77-3.07,2.04-3.78,9.14-5.39,6.25-13.24Z"/><path d="M128.02,33.08c1.86,0,3.66,.52,5.3,1.45,.27,.15,.54,.32,.8,.5,1.64,1.19,2.7,3.11,2.7,5.29,0,2.35-1.24,4.4-3.09,5.55-1.81-5.55-5.12-9.68-7.86-10.36-.5-.12-.98-.13-1.43-.02-3.09,.81-4.46,7.31-2.48,14.52,1.36,4.95,3.95,8.95,6.44,10.71,1.14,.8,2.33,1.27,3.3,1.02,.69-.18,3.23-1.54,4.02-2l.4,.69,.23,.39-2.67,1.54-.57,.33c-1.58,.86-3.3,1.33-5.08,1.33-6.77,0-12.82-6.93-12.82-15.48s6.05-15.48,12.82-15.48Z"/><path d="M159.58,39.34c-.12-3.15-1.96-4.75-4.52-3.63-2.42,1.06-4.71,4.22-5.71,7.61v17.19c0,1.24,1.01,2.25,2.25,2.25h1.35v.6h-13.28v-.6h1.35c1.24,0,2.25-1.01,2.25-2.25V26.08c0-1.3-1.64-1.35-2.58-1.17v-.66c1.74-.18,7.13-1.58,8.01-3.2l.64-.03v18.62c1.67-2.82,4.27-5.14,7.2-6.1,1.06-.35,2.08-.5,3.03-.46,3.54,.15,6.08,2.88,6.08,7.07v20.35c0,1.24,1.01,2.25,2.25,2.25h1.35v.6h-13.28v-.6h1.35c1.24,0,2.25-1.01,2.25-2.25v-21.17Z"/><path d="M173.16,24.9v-.66c1.73-.18,7.12-1.58,8.01-3.2l.64-.03v29.4c6.5-3.27,14.31-9.96,5.89-15.69,3.23-3.45,10.53-1.91,10.68,2.71,.08,2.49-2,5.97-8.12,10.24l6.82,11.91c1.07,2.01,3.02,3.18,5.3,3.18v.6h-14.53v-.6h.83c.7,0,1.3-.34,1.65-.94,.36-.6,.38-1.29,.05-1.9l-5.48-9.38c-.73,.35-2.44,1.36-3.1,1.64v8.33c0,1.24,1.01,2.25,2.25,2.25h1.35v.6h-13.28v-.6h1.35c1.24,0,2.25-1.01,2.25-2.25V26.08c0-1.3-1.63-1.35-2.57-1.17Z"/><path d="M227.54,48.55c0,8.55-6.05,15.48-12.82,15.48s-12.82-6.93-12.82-15.48,6.05-15.48,12.82-15.48,12.82,6.93,12.82,15.48Zm-16.41-13.06c-3.1,.81-4.46,7.31-2.48,14.52s6.57,12.4,9.66,11.59c3.09-.81,4.46-7.31,2.48-14.52-1.98-7.21-6.57-12.4-9.66-11.59Z"/><g><g><path d="M42.32,27.52c-1.78-3.73-2.26-8.02-1.31-12.05,1.79,3.73,2.25,8.02,1.31,12.05h0Z"/><path d="M40.64,12.05c-1.78-3.73-2.26-8.02-1.31-12.05,1.79,3.73,2.25,8.02,1.31,12.05h0Z"/></g><g><path d="M48.67,27.44c.45-4.11,2.3-8.01,5.23-10.94-.44,4.11-2.31,8.01-5.23,10.94h0Z"/><path d="M55.38,13.4c.45-4.11,2.3-8.01,5.23-10.94-.44,4.11-2.31,8.01-5.23,10.94h0Z"/></g><g><path d="M35.91,28.78c-3.48-2.23-6.14-5.63-7.46-9.56,3.49,2.23,6.14,5.64,7.46,9.56h0Z"/><path d="M26.34,16.51c-3.48-2.23-6.14-5.63-7.46-9.56,3.49,2.23,6.14,5.64,7.46,9.56h0Z"/></g><g><path d="M53.88,30.48c2.23-3.48,5.63-6.14,9.56-7.46-2.23,3.49-5.64,6.14-9.56,7.46h0Z"/><path d="M66.15,20.91c2.23-3.48,5.63-6.14,9.56-7.46-2.23,3.49-5.64,6.14-9.56,7.46h0Z"/></g><g><g><path d="M39.66,69.47c.24,4.13-.94,8.28-3.34,11.65-.25-4.13,.95-8.28,3.34-11.65h0Z"/><path d="M35.37,84.43c.24,4.13-.94,8.28-3.34,11.65-.25-4.13,.95-8.28,3.34-11.65h0Z"/></g><g><path d="M47.23,69.69c2.26,3.46,3.3,7.66,2.89,11.77-2.27-3.46-3.29-7.66-2.89-11.77h0Z"/><path d="M50.93,84.8c2.26,3.46,3.3,7.66,2.89,11.77-2.27-3.46-3.29-7.66-2.89-11.77h0Z"/></g><g><path d="M33.25,66.49c-2.25,3.47-5.65,6.13-9.58,7.43,2.24-3.48,5.66-6.12,9.58-7.43h0Z"/><path d="M20.95,76.03c-2.25,3.47-5.65,6.13-9.58,7.43,2.24-3.48,5.66-6.12,9.58-7.43h0Z"/></g><g><path d="M53.54,67.26c3.57,2.09,6.37,5.38,7.84,9.25-3.57-2.08-6.36-5.39-7.84-9.25h0Z"/><path d="M63.6,79.13c3.57,2.09,6.37,5.38,7.84,9.25-3.57-2.08-6.36-5.39-7.84-9.25h0Z"/></g></g></g></svg>